<mxfile host="app.diagrams.net" modified="2022-01-25T20:00:49.746Z" agent="5.0 (Windows NT 10.0; WOW64) AppleWebKit/537.36 (KHTML, like Gecko) Chrome/97.0.4692.99 Safari/537.36" etag="lSN9EFb8nWoPCRi4tMhR" version="16.4.6" type="github">
  <diagram id="Fmpa-COd6J_b_fzYQaFG" name="Page-1">
    <mxGraphModel dx="1165" dy="501" grid="1" gridSize="10" guides="1" tooltips="1" connect="1" arrows="1" fold="1" page="1" pageScale="1" pageWidth="1169" pageHeight="827" math="0" shadow="0">
      <root>
        <mxCell id="0" />
        <mxCell id="1" parent="0" />
        <mxCell id="4qManxZfzn34yBkkgIPU-10" value="" style="group" parent="1" vertex="1" connectable="0">
          <mxGeometry x="290" y="120" width="740" height="386" as="geometry" />
        </mxCell>
        <mxCell id="sVx-6X5LhX6Xo08L69X_-13" value="" style="rounded=0;whiteSpace=wrap;html=1;strokeColor=#330000;" parent="4qManxZfzn34yBkkgIPU-10" vertex="1">
          <mxGeometry y="26" width="740" height="360" as="geometry" />
        </mxCell>
        <mxCell id="sVx-6X5LhX6Xo08L69X_-7" value="" style="shape=image;html=1;verticalAlign=top;verticalLabelPosition=bottom;labelBackgroundColor=#ffffff;imageAspect=0;aspect=fixed;image=https://cdn0.iconfinder.com/data/icons/pinpoint-interface/48/location-128.png;dashed=1;strokeColor=#0000FF;" parent="4qManxZfzn34yBkkgIPU-10" vertex="1">
          <mxGeometry x="66.26865671641791" y="76" width="19.22077922077922" height="19.22077922077922" as="geometry" />
        </mxCell>
        <mxCell id="sVx-6X5LhX6Xo08L69X_-8" value="Azure Cloud" style="text;html=1;strokeColor=none;fillColor=none;align=center;verticalAlign=middle;whiteSpace=wrap;rounded=0;dashed=1;" parent="4qManxZfzn34yBkkgIPU-10" vertex="1">
          <mxGeometry x="66.26865671641791" width="143.58208955223878" height="20" as="geometry" />
        </mxCell>
        <mxCell id="sVx-6X5LhX6Xo08L69X_-2" value="" style="shape=image;verticalLabelPosition=bottom;verticalAlign=top;imageAspect=0;aspect=fixed;image=data:image/png,iVBORw0KGgoAAAANSUhEUgAAASkAAACqCAMAAADGFElyAAAAY1BMVEUAvPL///8AufKl3/kAuvIAt/Gh4Pmc3/lkzPXE7Pts0fZCxvQAvfI1xfQfwvPq9/2P2/hSy/Xw+/6u4vnR7vva8/3h9v30/P5LyfR81fe+6vu25/p00/bV8vzM7/yo4/mJ2fiWfsh5AAALJElEQVR4nO2dbWOrLAyGLQf6qra6tto37f//lcdErVqpRQsRt95fnj1bd4aXECAkwZl9pSZn7AZMRhaTCo+Hw/58Xh0Ox3DstszsJBXt01PgM84e4tyNT/NkVGC2kdperr7IyDgtcc6Ev06PY7XMKlK3uyeFVMcl/FMySuPsIXXcZQOui9KDFnNON/r22ULqHAslTAUs4afULbSDVOozdUy5mHOPSNtoA6m525tTzmpH2crxSZ2HcUJWfE7XzrFJHWMxlBOy8skmwpFJLdSmuy5Wa6Kmjkpq6w0eeDVU7p6ksWOSunzanwqJO0VrRyR1+shC1cUCggXDeKRiTT0KxP2t8faORSp0NYICVsb3NyOR2rpaOWVippcL45DSDypDtTLb5lFIhfo5OcZ71RikIt8IKYcb9fKNQWqj15hXck26j0cgtTYFyuGewWbTk0q1LTglqK7m2k1O6qhhq/da4mys4eSkPJOgMhkzVdSkdka7VDb+lqZaTkzK7NgDGRt/xKQCY/PeQ66hptOSSgzOe6X4wkzbaUmZNuc5KjPOKlJSK+NWCknVD7e2h/MlTdNLcvyUHympmAJUZakOi8DlECiTiTHHv14+WUJQkjoQWCkQg5P4490VTwc/nItNOrhrUZI6mZ/4cnmzJHgR5sD5aaAjmZIUiZVCHJuOP5WxGtSvtJM6nBenZexlitf3eVJ7gWcyUm/E+M+AB9NKKtnFTLBHsBgYUuEu54WDzZy3pbfEgGMvfaRWa1d6dJ7h8ncAi5xHh7jb+yxHE6loJ8dUiLHN+WbL4MvFLmOQCk/iLYaPQzV0S/SM6tNB6m4dBSWJfnb9c1JnzafBdOp3QvgpqSggWnibEOtz7PUhqcSZaodC+WSk5nbNZ73FTkSkrrQjj+ufOZh6PN8npJZUPQpyjbi7uS7Oge5/Wn38fUCKwCcO2yHuB9d/lyJxban7LzDlpcJwUkuToACRcIPTfNWcnrSTUj+gGEzqamTooX/S8YN7mkhncP2klHc1Q0npnvXQ7+B4wf203Hbs8/WTclSjPgaSSrSByia0zBZ56/tPgoiSzkh8A6RUl5/DSEVa2gjHAN56d9nXDwJW5KQU85SGkdJizf3zQXJWQk5KdfgNInXWsuLcSP9telJM7WxrECk9kb/WkFKL+RhC6q5nJWULKa6WdjOAVKhp3rOGlFrI1QBSug44bSGluPfrTyrStZSyhpQag/6ktMUfWkNKGCKlLeXFHlJKy4TepPTFQP12UvrOzO0hpfTgvUnpa6A1pPhJ5TirLyl9TgR7SGFNnYNuUprW5yB7SDlQU8d749LrS2qjr3FWkXKgnkcnq76kNLo6bSMFrDo2yz1JHX41qYxV/DIKtCcpXWUzQHJS5N7hpjh7lSLRk5TOVCp/vmhrftrIvl3+VKOZfCUWyxeiPUnpDJT25zKdNqn0+6iUgJTDuXR51ZOUztNuK0cfSshGYE9SOt+pjRa9EJPkM/ckpbPSgcWkHB58SSmqjUqVVBSC/g6pNqr3pKL9/Br7bh5boVN2k3L4U0PekLrtPPamFPBgWU7KYc3TrS5Sx537PiJ/uGwn5YjGjvk1qX3AzEYnWk+qGQbzilSyMZ64YD+pxkmgnNSWIh5/AqTqFXWkpBaGbHhTEyDliKpOmoRU2JWbqlFTIFUbf21SK5IO5UyEVFXRo0VqQZa3MAlSDi+9Vc+kTnSZMNMg9Vh/PpFaE6YMTYOUIyIZKUpQjr86SCLPrSNVhuw1SBEOPRBjzN+sF5fDqFHWb1XUHqqTGiVbDyL3uQth6Tc8QLLBO/zUwvSZFEUZrdfNgWuwuL++34OuGJ0xSBUB6xUpPXkLHwqcYIJ7y/vPSpo+MwopdmiSIkjXUxfmG/mYtRaNT2rXIPVjY0oxVNiCC+kWq9uIpPItTUnKirH3SpBdK9z4ulhpz65VkjjWSF1tGnsvZCBjW/EPpxWp44TrQ5gXZkEUpIwmFf8CPUiZL3I7bYFD3ZmMlRpTUCsHSUVfUN2C8DMklX5JdYufClJEtVvBeTDRdxLnpEKiJUKcJInpSvKG5OWkfmheNOb7Wr0XeC03J0VUaJNPeJp1IyRl4JIqiXheFUtj4g2lkNSWpu2iyOExdNWTYSEpmvru6DkEz+9iksMPSS1oKuHD1cVg1KlmWr1CUjRly+Es9iwC3c5VotCAfO4j8Y6h4yLgwKs+2ploCn6U/af+i6KMC8y/zxwvLk0dc+PrNfAJlrM5KZILO2CPGfJ8DFZzrbd9UjYzxuE2rDYN/B5ut/iVn30/cNguKtc1IihCdg5r4wM6X3mSTEZusb0Eu17lnbYKGqXMwQH6+D309uNX4MxeFjcUAal62TbjReoDJEWxnMIHhs4La4XKG/ZMCtIHu0gFRVWtjFR+AeTtfE4IVmlw4k5ECnz26IHGU/5H9o3rPYSprdC9O0llM3X2mWWcV1de+YJz4UP10rtRVGA0iEhtHoPOlW80MaUAdzpdpFazwiRhWH15ZyKeXBq16nDZK42dQpuSvxHsDO0OkG2silJpXaQqOGH9lMQzvZ+EP0dk0aOHKcHe0HoseGnF3b+dpIr+X6w5yg/B2Da603DzEwfzfjwMVi7pQJDN7WlaRx7FRe5dpPbF7/FLY7sK/2ty6Y/tdyicLtBjHo4pvOyl2Y85mLHSx9dFqtx4sW1m7AQrJXZmDRW8CZp9Hzzkj+C5GFiVeeO5YOX+6GZdpMqNF1i16PhYr2KUh8GJCYsJOXoz+6XCxPpV+lMILvFq1NrD5eTjQTtXnkVTZfXaDJpbjEh19FaLkEpW36m2TUYrUJkA+0jlJRQc6ZytV+2c3sZUlY/NxqdVSC0qO4Uy1362LUkZnvzwpOGnpn/b8unxx8em21WFFKw66A4p41lJyrBJh8VIUtpzDE+EHU25TRbgXai7M4LGWMSZEr+qk4K3THZ7VLEVB1Jm72rEk4anpebsscLGXUyjqJU/qxdFEUcZKV6t+c2rqMrvGJ428l3Z0ykfjsd8zMN83wxaZo13h94G/KpBaml+KJQqc4yQlMZCZW3Bsz75j/BBL+jfTNoYwY2yKcfmQUoqN7Kbaow65mwtn9VImQyfwsi/50A2WGoCIEzf2YjGDIajNcRL7ni2nY6kpPIU/TU6jjPDtwyNZR087gzO46cMzn4skhTgRSfxleMuJtzXBA+c1ytPl3GwiGbbk5RUkXd+3AVxfE1Dg0PxcXdITsqcdzV3JLVGNwzJbP/SKiCGy6x6kpZ/l5N6vtPDlAGp/kwR52nMpjMIJG9XGMIpzW/fSoWuGb4ps++P/ov1FPzL12rpfwtMverqrRWkzHWqjed5kvftg0O45hwufcT5T0WQJkmSQoY9fBC/Bx9uLAw4C+YJfOzUeXPnRxLHZ1I0R1k9xJWi0uBTpoqpgOpF80pS+0megRsWj2dtUrTpolNRJCMVUW0OpiPRuDO5ylobNRHSRj1dA1zLGTV7uDg5iadboOp5yFblQo6t1hWkjdx2/4uqlGitihukwq9VLyTa9xo1K0tsx26hJZIViX2qVhJO9mpxnZIWHn6ugBN5f34G5L70lsh2/anlH19XCUnNYTmpyV8x/pGY++pGFVmdvOOfHYGctee8LlJUJQWtkwg67rF9Uc8zWk81Z3GwOItvchidpLIheDVcItYucb5+c4tRR93hcOeKv9GxuNikHRd7vyWV6QYu6l9NC2rsBOnLS2aUSWU6plcPU605+1XCMkSOt553Gqc+pEDRdn9J//0upT/ng7QY2Eekvpp9SanrS0pVX1Kq+pJS1ZeUqr6kVPUlpar/EiKvHKdSXhEAAAAASUVORK5CYII=" parent="4qManxZfzn34yBkkgIPU-10" vertex="1">
          <mxGeometry x="20.98507462686567" width="67.1574025974026" height="38.44155844155844" as="geometry" />
        </mxCell>
        <mxCell id="sVx-6X5LhX6Xo08L69X_-4" value="" style="rounded=0;whiteSpace=wrap;html=1;dashed=1;strokeColor=#0000FF;" parent="4qManxZfzn34yBkkgIPU-10" vertex="1">
          <mxGeometry x="54.11940298507463" y="66" width="640.5970149253731" height="280" as="geometry" />
        </mxCell>
        <mxCell id="sVx-6X5LhX6Xo08L69X_-5" value="Region: Brazil South" style="text;html=1;strokeColor=none;fillColor=none;align=center;verticalAlign=middle;whiteSpace=wrap;rounded=0;dashed=1;" parent="4qManxZfzn34yBkkgIPU-10" vertex="1">
          <mxGeometry x="77.31343283582089" y="76" width="143.58208955223878" height="20" as="geometry" />
        </mxCell>
        <mxCell id="sVx-6X5LhX6Xo08L69X_-15" value="" style="shape=image;html=1;verticalAlign=top;verticalLabelPosition=bottom;labelBackgroundColor=#ffffff;imageAspect=0;aspect=fixed;image=https://cdn0.iconfinder.com/data/icons/pinpoint-interface/48/location-128.png;strokeColor=#330000;" parent="4qManxZfzn34yBkkgIPU-10" vertex="1">
          <mxGeometry x="57.43283582089552" y="75" width="26.90909090909091" height="26.90909090909091" as="geometry" />
        </mxCell>
        <mxCell id="OGWAR6tBvTcE46FoyRlE-1" value="" style="rounded=0;whiteSpace=wrap;html=1;dashed=1;strokeColor=#0000FF;" parent="4qManxZfzn34yBkkgIPU-10" vertex="1">
          <mxGeometry x="209.8507462686567" y="120" width="473.82089552238807" height="216" as="geometry" />
        </mxCell>
        <mxCell id="OGWAR6tBvTcE46FoyRlE-2" value="" style="sketch=0;aspect=fixed;html=1;points=[];align=center;image;fontSize=12;image=img/lib/mscae/Databricks.svg;" parent="4qManxZfzn34yBkkgIPU-10" vertex="1">
          <mxGeometry x="220.8955223880597" y="90" width="48.05194805194805" height="46.12987012987013" as="geometry" />
        </mxCell>
        <mxCell id="OGWAR6tBvTcE46FoyRlE-3" value="Azure Databricks" style="text;html=1;strokeColor=none;fillColor=none;align=center;verticalAlign=middle;whiteSpace=wrap;rounded=0;dashed=1;" parent="4qManxZfzn34yBkkgIPU-10" vertex="1">
          <mxGeometry x="265.07462686567163" y="100" width="143.58208955223878" height="20" as="geometry" />
        </mxCell>
        <mxCell id="OGWAR6tBvTcE46FoyRlE-17" style="edgeStyle=orthogonalEdgeStyle;rounded=0;orthogonalLoop=1;jettySize=auto;html=1;" parent="4qManxZfzn34yBkkgIPU-10" source="OGWAR6tBvTcE46FoyRlE-4" target="OGWAR6tBvTcE46FoyRlE-15" edge="1">
          <mxGeometry relative="1" as="geometry" />
        </mxCell>
        <mxCell id="OGWAR6tBvTcE46FoyRlE-4" value="" style="sketch=0;aspect=fixed;html=1;points=[];align=center;image;fontSize=12;image=img/lib/mscae/Event_Hubs.svg;" parent="4qManxZfzn34yBkkgIPU-10" vertex="1">
          <mxGeometry x="111.55223880597015" y="232" width="36.9038961038961" height="38.44155844155844" as="geometry" />
        </mxCell>
        <mxCell id="OGWAR6tBvTcE46FoyRlE-6" value="Azure Event&lt;br&gt;Hubs&lt;br&gt;(Kafka)" style="text;html=1;strokeColor=none;fillColor=none;align=center;verticalAlign=middle;whiteSpace=wrap;rounded=0;dashed=1;" parent="4qManxZfzn34yBkkgIPU-10" vertex="1">
          <mxGeometry x="60.967164179104465" y="284" width="143.58208955223878" height="20" as="geometry" />
        </mxCell>
        <mxCell id="OGWAR6tBvTcE46FoyRlE-12" style="edgeStyle=orthogonalEdgeStyle;rounded=0;orthogonalLoop=1;jettySize=auto;html=1;" parent="4qManxZfzn34yBkkgIPU-10" source="OGWAR6tBvTcE46FoyRlE-9" target="OGWAR6tBvTcE46FoyRlE-4" edge="1">
          <mxGeometry relative="1" as="geometry" />
        </mxCell>
        <mxCell id="OGWAR6tBvTcE46FoyRlE-9" value="" style="sketch=0;outlineConnect=0;fontColor=#232F3E;gradientColor=none;fillColor=#3F8624;strokeColor=none;dashed=0;verticalLabelPosition=bottom;verticalAlign=top;align=center;html=1;fontSize=12;fontStyle=0;aspect=fixed;pointerEvents=1;shape=mxgraph.aws4.notebook;" parent="4qManxZfzn34yBkkgIPU-10" vertex="1">
          <mxGeometry x="296.45283582089553" y="180" width="43.5638961038961" height="49.97402597402597" as="geometry" />
        </mxCell>
        <mxCell id="OGWAR6tBvTcE46FoyRlE-10" value="&lt;b&gt;Producer&lt;br&gt;Notebook&lt;br&gt;&lt;/b&gt;" style="text;html=1;strokeColor=none;fillColor=none;align=center;verticalAlign=middle;whiteSpace=wrap;rounded=0;dashed=1;" parent="4qManxZfzn34yBkkgIPU-10" vertex="1">
          <mxGeometry x="254.11820895522388" y="145" width="143.58208955223878" height="20" as="geometry" />
        </mxCell>
        <mxCell id="OGWAR6tBvTcE46FoyRlE-14" value="tweets" style="text;html=1;strokeColor=none;fillColor=none;align=center;verticalAlign=middle;whiteSpace=wrap;rounded=0;dashed=1;" parent="4qManxZfzn34yBkkgIPU-10" vertex="1">
          <mxGeometry x="44.179104477611936" y="168" width="143.58208955223878" height="20" as="geometry" />
        </mxCell>
        <mxCell id="mStm85eunNJTQBFgBbFA-1" style="edgeStyle=orthogonalEdgeStyle;rounded=0;orthogonalLoop=1;jettySize=auto;html=1;entryX=0;entryY=0.5;entryDx=0;entryDy=0;" edge="1" parent="4qManxZfzn34yBkkgIPU-10" source="OGWAR6tBvTcE46FoyRlE-15" target="OGWAR6tBvTcE46FoyRlE-20">
          <mxGeometry relative="1" as="geometry" />
        </mxCell>
        <mxCell id="OGWAR6tBvTcE46FoyRlE-15" value="" style="sketch=0;outlineConnect=0;fontColor=#232F3E;gradientColor=none;fillColor=#3F8624;strokeColor=none;dashed=0;verticalLabelPosition=bottom;verticalAlign=top;align=center;html=1;fontSize=12;fontStyle=0;aspect=fixed;pointerEvents=1;shape=mxgraph.aws4.notebook;" parent="4qManxZfzn34yBkkgIPU-10" vertex="1">
          <mxGeometry x="400.1853731343284" y="262" width="43.5638961038961" height="49.97402597402597" as="geometry" />
        </mxCell>
        <mxCell id="OGWAR6tBvTcE46FoyRlE-16" value="&lt;b&gt;Consumer&lt;br&gt;Notebook&lt;br&gt;(writestream)&lt;br&gt;&lt;/b&gt;" style="text;html=1;strokeColor=none;fillColor=none;align=center;verticalAlign=middle;whiteSpace=wrap;rounded=0;dashed=1;" parent="4qManxZfzn34yBkkgIPU-10" vertex="1">
          <mxGeometry x="353.4328358208954" y="229" width="143.58208955223878" height="20" as="geometry" />
        </mxCell>
        <mxCell id="OGWAR6tBvTcE46FoyRlE-19" value="Table" style="shape=table;startSize=20;container=1;collapsible=0;childLayout=tableLayout;fontStyle=1;align=center;pointerEvents=1;" parent="4qManxZfzn34yBkkgIPU-10" vertex="1">
          <mxGeometry x="574.3283582089551" y="240" width="66.26865671641791" height="48" as="geometry" />
        </mxCell>
        <mxCell id="OGWAR6tBvTcE46FoyRlE-20" value="" style="shape=partialRectangle;html=1;whiteSpace=wrap;collapsible=0;dropTarget=0;pointerEvents=0;fillColor=none;top=0;left=0;bottom=0;right=0;points=[[0,0.5],[1,0.5]];portConstraint=eastwest;" parent="OGWAR6tBvTcE46FoyRlE-19" vertex="1">
          <mxGeometry y="20" width="66.26865671641791" height="9" as="geometry" />
        </mxCell>
        <mxCell id="OGWAR6tBvTcE46FoyRlE-21" value="" style="shape=partialRectangle;html=1;whiteSpace=wrap;connectable=0;fillColor=none;top=0;left=0;bottom=0;right=0;overflow=hidden;pointerEvents=1;" parent="OGWAR6tBvTcE46FoyRlE-20" vertex="1">
          <mxGeometry width="22" height="9" as="geometry">
            <mxRectangle width="22" height="9" as="alternateBounds" />
          </mxGeometry>
        </mxCell>
        <mxCell id="OGWAR6tBvTcE46FoyRlE-22" value="" style="shape=partialRectangle;html=1;whiteSpace=wrap;connectable=0;fillColor=none;top=0;left=0;bottom=0;right=0;overflow=hidden;pointerEvents=1;" parent="OGWAR6tBvTcE46FoyRlE-20" vertex="1">
          <mxGeometry x="22" width="22" height="9" as="geometry">
            <mxRectangle width="22" height="9" as="alternateBounds" />
          </mxGeometry>
        </mxCell>
        <mxCell id="OGWAR6tBvTcE46FoyRlE-23" value="" style="shape=partialRectangle;html=1;whiteSpace=wrap;connectable=0;fillColor=none;top=0;left=0;bottom=0;right=0;overflow=hidden;pointerEvents=1;" parent="OGWAR6tBvTcE46FoyRlE-20" vertex="1">
          <mxGeometry x="44" width="22" height="9" as="geometry">
            <mxRectangle width="22" height="9" as="alternateBounds" />
          </mxGeometry>
        </mxCell>
        <mxCell id="OGWAR6tBvTcE46FoyRlE-24" value="" style="shape=partialRectangle;html=1;whiteSpace=wrap;collapsible=0;dropTarget=0;pointerEvents=0;fillColor=none;top=0;left=0;bottom=0;right=0;points=[[0,0.5],[1,0.5]];portConstraint=eastwest;" parent="OGWAR6tBvTcE46FoyRlE-19" vertex="1">
          <mxGeometry y="29" width="66.26865671641791" height="10" as="geometry" />
        </mxCell>
        <mxCell id="OGWAR6tBvTcE46FoyRlE-25" value="" style="shape=partialRectangle;html=1;whiteSpace=wrap;connectable=0;fillColor=none;top=0;left=0;bottom=0;right=0;overflow=hidden;pointerEvents=1;" parent="OGWAR6tBvTcE46FoyRlE-24" vertex="1">
          <mxGeometry width="22" height="10" as="geometry">
            <mxRectangle width="22" height="10" as="alternateBounds" />
          </mxGeometry>
        </mxCell>
        <mxCell id="OGWAR6tBvTcE46FoyRlE-26" value="" style="shape=partialRectangle;html=1;whiteSpace=wrap;connectable=0;fillColor=none;top=0;left=0;bottom=0;right=0;overflow=hidden;pointerEvents=1;" parent="OGWAR6tBvTcE46FoyRlE-24" vertex="1">
          <mxGeometry x="22" width="22" height="10" as="geometry">
            <mxRectangle width="22" height="10" as="alternateBounds" />
          </mxGeometry>
        </mxCell>
        <mxCell id="OGWAR6tBvTcE46FoyRlE-27" value="" style="shape=partialRectangle;html=1;whiteSpace=wrap;connectable=0;fillColor=none;top=0;left=0;bottom=0;right=0;overflow=hidden;pointerEvents=1;" parent="OGWAR6tBvTcE46FoyRlE-24" vertex="1">
          <mxGeometry x="44" width="22" height="10" as="geometry">
            <mxRectangle width="22" height="10" as="alternateBounds" />
          </mxGeometry>
        </mxCell>
        <mxCell id="OGWAR6tBvTcE46FoyRlE-28" value="" style="shape=partialRectangle;html=1;whiteSpace=wrap;collapsible=0;dropTarget=0;pointerEvents=0;fillColor=none;top=0;left=0;bottom=0;right=0;points=[[0,0.5],[1,0.5]];portConstraint=eastwest;" parent="OGWAR6tBvTcE46FoyRlE-19" vertex="1">
          <mxGeometry y="39" width="66.26865671641791" height="9" as="geometry" />
        </mxCell>
        <mxCell id="OGWAR6tBvTcE46FoyRlE-29" value="" style="shape=partialRectangle;html=1;whiteSpace=wrap;connectable=0;fillColor=none;top=0;left=0;bottom=0;right=0;overflow=hidden;pointerEvents=1;" parent="OGWAR6tBvTcE46FoyRlE-28" vertex="1">
          <mxGeometry width="22" height="9" as="geometry">
            <mxRectangle width="22" height="9" as="alternateBounds" />
          </mxGeometry>
        </mxCell>
        <mxCell id="OGWAR6tBvTcE46FoyRlE-30" value="" style="shape=partialRectangle;html=1;whiteSpace=wrap;connectable=0;fillColor=none;top=0;left=0;bottom=0;right=0;overflow=hidden;pointerEvents=1;" parent="OGWAR6tBvTcE46FoyRlE-28" vertex="1">
          <mxGeometry x="22" width="22" height="9" as="geometry">
            <mxRectangle width="22" height="9" as="alternateBounds" />
          </mxGeometry>
        </mxCell>
        <mxCell id="OGWAR6tBvTcE46FoyRlE-31" value="" style="shape=partialRectangle;html=1;whiteSpace=wrap;connectable=0;fillColor=none;top=0;left=0;bottom=0;right=0;overflow=hidden;pointerEvents=1;" parent="OGWAR6tBvTcE46FoyRlE-28" vertex="1">
          <mxGeometry x="44" width="22" height="9" as="geometry">
            <mxRectangle width="22" height="9" as="alternateBounds" />
          </mxGeometry>
        </mxCell>
        <mxCell id="OGWAR6tBvTcE46FoyRlE-36" value="&lt;b&gt;formato Delta&lt;br&gt;&lt;/b&gt;" style="text;html=1;strokeColor=none;fillColor=none;align=center;verticalAlign=middle;whiteSpace=wrap;rounded=0;dashed=1;" parent="4qManxZfzn34yBkkgIPU-10" vertex="1">
          <mxGeometry x="540.0895522388058" y="294" width="143.58208955223878" height="20" as="geometry" />
        </mxCell>
        <mxCell id="OGWAR6tBvTcE46FoyRlE-7" value="" style="shape=image;html=1;verticalAlign=top;verticalLabelPosition=bottom;labelBackgroundColor=#ffffff;imageAspect=0;aspect=fixed;image=https://cdn2.iconfinder.com/data/icons/social-media-2285/512/1_Twitter3_colored_svg-128.png" parent="1" vertex="1">
          <mxGeometry x="180" y="163" width="47" height="47" as="geometry" />
        </mxCell>
        <mxCell id="OGWAR6tBvTcE46FoyRlE-11" style="edgeStyle=orthogonalEdgeStyle;rounded=0;orthogonalLoop=1;jettySize=auto;html=1;" parent="1" source="OGWAR6tBvTcE46FoyRlE-8" target="OGWAR6tBvTcE46FoyRlE-9" edge="1">
          <mxGeometry relative="1" as="geometry">
            <Array as="points">
              <mxPoint x="204" y="310" />
            </Array>
          </mxGeometry>
        </mxCell>
        <mxCell id="OGWAR6tBvTcE46FoyRlE-8" value="&lt;b&gt;twitter.com&lt;/b&gt;" style="text;html=1;strokeColor=none;fillColor=none;align=center;verticalAlign=middle;whiteSpace=wrap;rounded=0;dashed=1;" parent="1" vertex="1">
          <mxGeometry x="138.5" y="210" width="130" height="20" as="geometry" />
        </mxCell>
        <mxCell id="KXef0VtgpPOf-w7ySgft-1" value="" style="shape=cylinder3;whiteSpace=wrap;html=1;boundedLbl=1;backgroundOutline=1;size=15;" parent="1" vertex="1">
          <mxGeometry x="737" y="510" width="60" height="80" as="geometry" />
        </mxCell>
        <mxCell id="KXef0VtgpPOf-w7ySgft-2" value="&lt;b&gt;cloud dw (Synapse)&lt;br&gt;&lt;/b&gt;" style="text;html=1;strokeColor=none;fillColor=none;align=center;verticalAlign=middle;whiteSpace=wrap;rounded=0;dashed=1;" parent="1" vertex="1">
          <mxGeometry x="692.2950746268655" y="600" width="149.40298507462686" height="20" as="geometry" />
        </mxCell>
        <mxCell id="KXef0VtgpPOf-w7ySgft-7" style="edgeStyle=orthogonalEdgeStyle;rounded=0;orthogonalLoop=1;jettySize=auto;html=1;" parent="1" source="KXef0VtgpPOf-w7ySgft-3" target="KXef0VtgpPOf-w7ySgft-1" edge="1">
          <mxGeometry relative="1" as="geometry" />
        </mxCell>
        <mxCell id="KXef0VtgpPOf-w7ySgft-3" value="" style="rounded=0;whiteSpace=wrap;html=1;" parent="1" vertex="1">
          <mxGeometry x="450" y="560" width="120" height="60" as="geometry" />
        </mxCell>
        <mxCell id="KXef0VtgpPOf-w7ySgft-4" value="&lt;b&gt;Azure Datalake Storage&lt;br&gt;&lt;br&gt;parquet&#39;s&lt;br&gt;&lt;/b&gt;" style="text;html=1;strokeColor=none;fillColor=none;align=center;verticalAlign=middle;whiteSpace=wrap;rounded=0;dashed=1;" parent="1" vertex="1">
          <mxGeometry x="434.99507462686546" y="620" width="149.40298507462686" height="20" as="geometry" />
        </mxCell>
        <mxCell id="KXef0VtgpPOf-w7ySgft-5" style="edgeStyle=orthogonalEdgeStyle;rounded=0;orthogonalLoop=1;jettySize=auto;html=1;" parent="1" source="OGWAR6tBvTcE46FoyRlE-15" target="KXef0VtgpPOf-w7ySgft-3" edge="1">
          <mxGeometry relative="1" as="geometry">
            <Array as="points">
              <mxPoint x="640" y="420" />
              <mxPoint x="640" y="480" />
              <mxPoint x="510" y="480" />
            </Array>
          </mxGeometry>
        </mxCell>
      </root>
    </mxGraphModel>
  </diagram>
</mxfile>
